<?xml version="1.0" encoding="utf-8"?>
<!-- Generator: Adobe Illustrator 28.0.0, SVG Export Plug-In . SVG Version: 6.00 Build 0)  -->
<svg version="1.1" id="Layer_1" xmlns="http://www.w3.org/2000/svg" xmlns:xlink="http://www.w3.org/1999/xlink" x="0px" y="0px"
	 width="24px" height="24px" viewBox="0 0 24 24" style="enable-background:new 0 0 24 24;" xml:space="preserve">
<style type="text/css">
	.st0{fill:#3498DB;}
	.st1{fill-rule:evenodd;clip-rule:evenodd;fill:#3498DB;}
</style>
<g id="Icon__x2F__24px__x2F__Device_monitoring">
	<g id="icon">
		<path class="st0" d="M9,12c0.6,0,1,0.4,1,1s-0.4,1-1,1H7c-0.6,0-1-0.4-1-1s0.4-1,1-1H9z"/>
		<path class="st1" d="M18,2c2.2,0,4,1.8,4,4v8c0,2.2-1.8,4-4,4H6c-2.2,0-4-1.8-4-4V6c0-2.2,1.8-4,4-4H18z M18,4H6C4.9,4,4,4.9,4,6
			v8c0,1.1,0.9,2,2,2h12c1.1,0,2-0.9,2-2V6C20,4.9,19.1,4,18,4z"/>
		<path class="st0" d="M9,20c-0.6,0-1,0.4-1,1s0.4,1,1,1h6c0.6,0,1-0.4,1-1s-0.4-1-1-1H9z"/>
	</g>
</g>
</svg>
